<svg xmlns="http://www.w3.org/2000/svg" viewBox="0 0 48 48" width="24px" height="24px">
  <path fill="#4285F4" d="M24 9.5c3.54 0 6.36 1.52 8.07 2.79l5.9-5.9C34.31 2.63 29.56 0 24 0 14.56 0 6.4 5.79 2.56 14.06l6.98 5.42C11.65 13.28 17.31 9.5 24 9.5z"/>
  <path fill="#34A853" d="M46.1 24.55c0-1.64-.15-3.2-.44-4.68H24v8.87h12.55c-.54 2.9-2.19 5.36-4.66 7.02l7.23 5.62C43.91 37.63 46.1 31.54 46.1 24.55z"/>
  <path fill="#FBBC05" d="M9.54 28.62c-.56-1.67-.88-3.46-.88-5.32s.32-3.65.88-5.32l-6.98-5.42C1.38 15.45 0 19.54 0 23.3s1.38 7.85 3.56 10.74l6.98-5.42z"/>
  <path fill="#EA4335" d="M24 48c6.56 0 12.07-2.17 16.1-5.89l-7.23-5.62c-2.01 1.35-4.58 2.14-7.47 2.14-6.69 0-12.35-4.48-14.39-10.54l-6.98 5.42C6.4 42.21 14.56 48 24 48z"/>
</svg>
